<svg xmlns="http://www.w3.org/2000/svg" xmlns:xlink="http://www.w3.org/1999/xlink" width="90" zoomAndPan="magnify" viewBox="0 0 67.5 67.499996" height="90" preserveAspectRatio="xMidYMid meet" version="1.0"><defs><clipPath id="5e87e268e5"><path d="M 7.355469 3.3125 L 63.191406 3.3125 L 63.191406 59.152344 L 7.355469 59.152344 Z M 7.355469 3.3125 " clip-rule="nonzero"/></clipPath></defs><g clip-path="url(#5e87e268e5)"><path fill="#00bf63" d="M 16.183594 43.019531 L 7.359375 51.667969 L 7.359375 26.84375 L 16.183594 26.84375 Z M 30.886719 37.609375 L 26.269531 33.667969 L 22.0625 37.550781 L 22.0625 15.078125 L 30.886719 15.078125 Z M 45.59375 32.726562 L 36.769531 41.550781 L 36.769531 3.3125 L 45.59375 3.3125 Z M 53.859375 32.167969 L 48.535156 26.84375 L 63.242188 26.84375 L 63.242188 41.550781 L 57.976562 36.285156 L 36.769531 57.316406 L 26.5625 48.433594 L 15.445312 59.195312 L 7.359375 59.195312 L 26.386719 40.550781 L 36.769531 49.316406 " fill-opacity="1" fill-rule="nonzero"/></g></svg>